HIERARCHY
ROOT joint_Root
{
	OFFSET 0.0 0.0 0.0
	CHANNELS 6 Xposition Yposition Zposition Zrotation Xrotation Yrotation 
	JOINT Hips
	{
		OFFSET 4.5925 91.4895 -427.239
		CHANNELS 6 Xposition Yposition Zposition Zrotation Xrotation Yrotation 
		JOINT Spine
		{
			OFFSET 15.7357 0.0 0.0
			CHANNELS 6 Xposition Yposition Zposition Zrotation Xrotation Yrotation 
			JOINT Chest
			{
				OFFSET 8.98455 -0.406207 0.0
				CHANNELS 6 Xposition Yposition Zposition Zrotation Xrotation Yrotation 
				JOINT Neck
				{
					OFFSET 16.3773 0.0 0.0
					CHANNELS 6 Xposition Yposition Zposition Zrotation Xrotation Yrotation 
					JOINT Head
					{
						OFFSET 6.45672 0.0 0.0
						CHANNELS 6 Xposition Yposition Zposition Zrotation Xrotation Yrotation 
						End Site
						{
							OFFSET 0.0 0.0 0.0
						}
					}
				}
				JOINT Shoulder_L
				{
					OFFSET 12.9942 -0.242716 4.98039
					CHANNELS 6 Xposition Yposition Zposition Zrotation Xrotation Yrotation 
					JOINT UpperArm_L
					{
						OFFSET 5.34809 0.0 0.0
						CHANNELS 6 Xposition Yposition Zposition Zrotation Xrotation Yrotation 
						JOINT LowerArm_L
						{
							OFFSET 24.3286 1.87007e-05 0.0
							CHANNELS 6 Xposition Yposition Zposition Zrotation Xrotation Yrotation 
							JOINT Hand_L
							{
								OFFSET 22.2916 0.0 0.0
								CHANNELS 6 Xposition Yposition Zposition Zrotation Xrotation Yrotation 
								End Site
								{
									OFFSET 0.0 0.0 0.0
								}
							}
						}
					}
				}
				JOINT Shoulder_R
				{
					OFFSET 12.9945 -0.242716 -4.98039
					CHANNELS 6 Xposition Yposition Zposition Zrotation Xrotation Yrotation 
					JOINT UpperArm_R
					{
						OFFSET -5.34813 0.0 0.0
						CHANNELS 6 Xposition Yposition Zposition Zrotation Xrotation Yrotation 
						JOINT LowerArm_R
						{
							OFFSET -24.3289 0.000322201 0.0
							CHANNELS 6 Xposition Yposition Zposition Zrotation Xrotation Yrotation 
							JOINT Hand_R
							{
								OFFSET -22.2915 -0.000108084 0.0
								CHANNELS 6 Xposition Yposition Zposition Zrotation Xrotation Yrotation 
								End Site
								{
									OFFSET 0.0 0.0 0.0
								}
							}
						}
					}
				}
			}
		}
		JOINT UpperLeg_L
		{
			OFFSET -2.19248 -6.46944 0.0
			CHANNELS 6 Xposition Yposition Zposition Zrotation Xrotation Yrotation 
			JOINT LowerLeg_L
			{
				OFFSET 39.0811 0.0 -1.23785e-05
				CHANNELS 6 Xposition Yposition Zposition Zrotation Xrotation Yrotation 
				JOINT Foot_L
				{
					OFFSET 40.9854 0.0 -1.26872e-05
					CHANNELS 6 Xposition Yposition Zposition Zrotation Xrotation Yrotation 
					JOINT Toes_L
					{
						OFFSET 11.7543 0.0 0.0
						CHANNELS 6 Xposition Yposition Zposition Zrotation Xrotation Yrotation 
						End Site
						{
							OFFSET 0.0 0.0 0.0
						}
					}
				}
			}
		}
		JOINT UpperLeg_R
		{
			OFFSET -2.19251 6.46944 0.0
			CHANNELS 6 Xposition Yposition Zposition Zrotation Xrotation Yrotation 
			JOINT LowerLeg_R
			{
				OFFSET -39.0811 -0.00228153 -0.0401928
				CHANNELS 6 Xposition Yposition Zposition Zrotation Xrotation Yrotation 
				JOINT Foot_R
				{
					OFFSET -40.9854 0.0 0.0
					CHANNELS 6 Xposition Yposition Zposition Zrotation Xrotation Yrotation 
					JOINT Toes_R
					{
						OFFSET -11.7543 0.0 0.0
						CHANNELS 6 Xposition Yposition Zposition Zrotation Xrotation Yrotation 
						End Site
						{
							OFFSET 0.0 0.0 0.0
						}
					}
				}
			}
		}
	}
}
MOTION
Frames:	4
Frame Time:	0.0333333
0.000000 0.000000 0.000000 0.000000 0.000000 -0.000000 -4.645220 90.962000 2.862750 90.343600 -1.179580 12.081500 15.735700 0.000005 -0.000001 77.191100 82.316700 -75.293900 8.984550 -0.406207 -0.000000 7.287300 -3.402290 4.008130 16.377300 -0.000001 -0.000001 27.058700 -11.586700 0.782155 6.456720 -0.000001 -0.000000 14.274900 -13.925000 13.395000 12.994200 -0.242716 4.980390 -88.368200 -3.945420 -67.508400 5.348090 -0.000007 -0.000001 -46.224900 -38.150900 -91.809800 24.328600 0.000019 0.000005 13.924900 7.726480 -61.530800 22.291600 -0.000001 0.000005 15.931400 5.350980 -1.406510 12.994500 -0.242716 -4.980390 88.108400 10.188900 -79.424700 -5.348130 -0.000001 -0.000004 -59.877400 32.720500 -12.266200 -24.328900 0.000322 -0.000009 2.150600 5.893520 -20.097800 -22.291500 -0.000108 -0.000004 12.923700 5.385590 -2.475070 -2.192480 -6.469440 -0.000000 -171.391000 -13.921500 6.407710 39.081100 -0.000007 -0.000012 -0.209696 0.419288 26.571000 40.985400 -0.000006 -0.000013 -1.081430 10.826600 -69.930500 11.754300 -0.000000 0.000003 -0.000206 -0.001900 -16.649200 -2.192510 6.469440 -0.000001 171.397000 26.588900 -171.045000 -39.081100 -0.002282 -0.040193 -0.215647 0.432863 26.832000 -40.985400 0.000008 0.000006 6.530620 18.162700 -73.194900 -11.754300 -0.000006 -0.000006 -0.000250 -0.004101 -16.740400
0.000000 0.000000 0.000000 0.000000 0.000000 -0.000000 -4.540610 90.961700 2.885990 90.338400 -1.280660 12.053500 15.735700 0.000005 -0.000001 76.838400 82.320800 -74.930800 8.984550 -0.406207 -0.000000 7.260340 -3.492820 4.033810 16.377300 -0.000001 -0.000001 26.976800 -11.373300 0.415798 6.456720 -0.000001 -0.000000 14.252900 -13.546700 13.162200 12.994200 -0.242716 4.980390 -88.354100 -3.978880 -67.505700 5.348090 -0.000007 -0.000001 -45.210500 -37.830300 -92.884300 24.328600 0.000019 0.000005 14.847600 7.405250 -64.071600 22.291600 -0.000001 0.000005 16.191000 5.360870 -1.706040 12.994500 -0.242716 -4.980390 88.114600 10.153700 -79.422900 -5.348130 -0.000001 -0.000004 -59.936500 33.011900 -12.403600 -24.328900 0.000322 -0.000009 2.097580 5.690260 -20.283500 -22.291500 -0.000108 -0.000004 12.769200 5.385270 -2.464890 -2.192480 -6.469440 -0.000000 -171.451000 -13.984300 6.407180 39.081100 -0.000007 -0.000012 -0.208881 0.417297 26.590900 40.985400 -0.000006 -0.000013 -1.019660 10.765600 -69.986200 11.754300 -0.000000 0.000003 -0.000195 -0.001809 -16.645900 -2.192510 6.469440 -0.000001 171.359000 26.496000 -171.089000 -39.081100 -0.002282 -0.040193 -0.218730 0.438694 26.845800 -40.985400 0.000008 0.000006 6.451690 18.178300 -73.173800 -11.754300 -0.000006 -0.000006 -0.000498 -0.007993 -16.898500
0.000000 0.000000 0.000000 0.000000 0.000000 -0.000000 -4.442070 90.972400 2.917060 90.338900 -1.474940 12.069100 15.735700 0.000005 -0.000001 76.485800 82.308500 -74.561400 8.984550 -0.406207 -0.000000 7.265160 -3.590150 4.073700 16.377300 -0.000001 -0.000001 26.888100 -11.211100 0.058801 6.456720 -0.000001 -0.000000 14.314400 -13.181800 13.023300 12.994200 -0.242716 4.980390 -88.334800 -4.029550 -67.525100 5.348090 -0.000007 -0.000001 -44.250400 -37.704900 -93.612100 24.328600 0.000019 0.000005 15.846100 7.204710 -66.161400 22.291600 -0.000001 0.000005 16.260100 5.368150 -1.929720 12.994500 -0.242716 -4.980390 88.126000 10.122700 -79.454300 -5.348130 -0.000001 -0.000004 -60.098400 33.086000 -12.325700 -24.328900 0.000322 -0.000009 2.138530 5.738190 -20.489000 -22.291500 -0.000108 -0.000004 12.772000 5.385080 -2.458620 -2.192480 -6.469440 -0.000000 -171.488000 -14.112900 6.525300 39.081100 -0.000007 -0.000012 -0.206085 0.412991 26.519700 40.985400 -0.000006 -0.000013 -0.970209 10.685700 -70.012200 11.754300 -0.000000 0.000003 -0.000200 -0.001853 -16.647400 -2.192510 6.469440 -0.000001 171.301000 26.375800 -171.062000 -39.081100 -0.002282 -0.040193 -0.217077 0.436336 26.797800 -40.985400 0.000008 0.000006 6.399420 18.289600 -73.130700 -11.754300 -0.000006 -0.000006 -0.000449 -0.007242 -16.868000
0.000000 0.000000 0.000000 0.000000 0.000000 -0.000000 -4.355800 90.965700 2.924420 90.291000 -1.714330 11.982200 15.735700 0.000005 -0.000001 76.037800 82.312400 -74.065400 8.984550 -0.406207 -0.000000 7.233370 -3.705570 4.175940 16.377300 -0.000001 -0.000001 26.837900 -11.104300 -0.210482 6.456720 -0.000001 -0.000000 14.275200 -12.929800 12.930100 12.994200 -0.242716 4.980390 -88.311900 -4.089250 -67.545100 5.348090 -0.000007 -0.000001 -43.346400 -37.832800 -93.906400 24.328600 0.000019 0.000005 16.633200 6.983230 -67.855200 22.291600 -0.000001 0.000005 16.238500 5.372780 -2.072640 12.994500 -0.242716 -4.980390 88.127500 10.086500 -79.426100 -5.348130 -0.000001 -0.000004 -60.216800 33.293200 -12.222000 -24.328900 0.000322 -0.000009 2.085910 5.561610 -20.606300 -22.291500 -0.000108 -0.000004 12.760200 5.385700 -2.478420 -2.192480 -6.469440 -0.000000 -171.483000 -14.281300 6.440160 39.081100 -0.000007 -0.000012 -0.208012 0.415231 26.609100 40.985400 -0.000006 -0.000013 -0.923956 10.598200 -70.092200 11.754300 -0.000000 0.000003 -0.000201 -0.001858 -16.647600 -2.192510 6.469440 -0.000001 171.381000 26.212900 -171.228000 -39.081100 -0.002282 -0.040193 -0.218153 0.437541 26.846600 -40.985400 0.000008 0.000006 6.360170 18.348800 -73.118200 -11.754300 -0.000006 -0.000006 -0.000419 -0.006783 -16.849300
